<?xml version="1.0" standalone="no"?>
<!DOCTYPE svg PUBLIC "-//W3C//DTD SVG 20010904//EN"
 "http://www.w3.org/TR/2001/REC-SVG-20010904/DTD/svg10.dtd">
<svg version="1.0" xmlns="http://www.w3.org/2000/svg"
 width="152.000000pt" height="68.000000pt" viewBox="0 0 152.000000 68.000000"
 preserveAspectRatio="xMidYMid meet">

<g transform="translate(0.000000,68.000000) scale(0.100000,-0.100000)"
fill="#000000" stroke="none">
<path d="M0 340 l0 -340 760 0 760 0 0 340 0 340 -760 0 -760 0 0 -340z m859
179 c21 -6 48 -19 61 -29 20 -15 22 -21 11 -34 -12 -14 -16 -14 -38 4 -49 38
-157 18 -201 -38 -11 -15 -14 -15 -30 2 -16 17 -15 19 22 52 58 50 109 63 175
43z m11 -74 c32 -17 35 -22 20 -45 -8 -12 -11 -12 -28 3 -10 9 -31 17 -46 17
-31 0 -82 -24 -88 -42 -3 -7 -12 -9 -22 -5 -47 18 29 87 96 87 21 0 52 -7 68
-15z m-40 -60 c17 -9 30 -20 30 -25 0 -16 -19 -21 -39 -9 -15 10 -24 9 -46 -5
-29 -19 -50 -11 -40 16 6 14 39 36 58 37 4 1 21 -6 37 -14z m-293 -107 c-2
-13 -4 -5 -4 17 -1 22 1 32 4 23 2 -10 2 -28 0 -40z m148 7 c2 -21 0 -33 -5
-29 -8 9 -13 37 -11 63 2 26 12 4 16 -34z m129 32 c26 -19 18 -61 -12 -65 -44
-7 -67 32 -36 62 19 19 25 20 48 3z m-740 -15 c-7 -4 -14 -16 -17 -27 -4 -15
-5 -14 -6 8 -1 20 4 27 17 27 11 0 13 -3 6 -8z m61 -3 c4 -6 -2 -13 -14 -16
-11 -3 -18 -9 -15 -14 3 -5 11 -6 17 -3 9 5 9 4 0 -6 -14 -15 -33 -5 -33 19 0
30 31 44 45 20z m43 4 c-10 -2 -18 -13 -18 -23 0 -14 5 -18 18 -14 14 5 15 4
2 -5 -11 -7 -19 -7 -28 3 -18 18 -4 46 22 45 16 -1 17 -2 4 -6z m62 -17 c0
-13 -7 -26 -15 -29 -22 -9 -31 14 -11 29 16 12 16 13 -1 17 -14 4 -14 5 5 6
17 1 22 -4 22 -23z m98 -14 c-2 -27 -8 -37 -21 -38 -9 -1 -11 0 -4 2 8 3 14
18 15 35 0 19 -4 29 -11 26 -7 -2 -11 -12 -11 -21 1 -9 -2 -16 -7 -16 -5 0 -9
9 -9 20 0 11 -4 20 -10 20 -5 0 -10 -9 -10 -20 0 -11 -4 -20 -10 -20 -10 0
-14 33 -5 42 4 3 24 6 46 6 l40 1 -3 -37z m94 30 c-10 -3 -10 -7 -1 -18 8 -10
9 -18 2 -25 -8 -8 -13 -7 -18 2 -5 8 -4 10 3 5 7 -4 12 -3 12 2 0 6 -7 12 -15
16 -9 3 -15 0 -15 -8 0 -19 -31 -29 -44 -16 -8 8 -6 15 7 25 18 13 18 13 0 18
-10 2 5 4 32 4 28 0 44 -2 37 -5z m88 -7 c0 -8 -7 -15 -15 -15 -8 0 -15 -4
-15 -10 0 -5 8 -7 18 -4 14 5 15 4 2 -5 -19 -13 -45 10 -37 33 8 20 47 21 47
1z m80 0 c0 -8 -7 -15 -15 -15 -8 0 -15 -4 -15 -10 0 -5 8 -7 18 -4 14 5 14 4
2 -4 -25 -18 -42 8 -31 46 4 10 41 -1 41 -13z m37 8 c-21 -6 -18 -40 4 -35 11
3 11 1 2 -8 -14 -15 -33 -4 -33 19 0 22 9 31 29 30 12 -1 12 -2 -2 -6z m97 -1
c-7 -4 -14 -16 -17 -27 -4 -15 -5 -14 -6 8 -1 20 4 27 17 27 11 0 13 -3 6 -8z
m162 -20 c1 -18 1 -19 -3 -2 -6 27 -31 25 -36 -2 -4 -19 -4 -18 -6 5 -1 24 2
28 22 25 15 -2 22 -10 23 -26z m21 -9 c-3 -10 -5 -4 -5 12 0 17 2 24 5 18 2
-7 2 -21 0 -30z m40 30 c-21 -6 -18 -40 4 -35 11 3 11 1 2 -8 -14 -15 -33 -4
-33 19 0 22 9 31 29 30 12 -1 12 -2 -2 -6z m73 -17 c0 -26 -19 -39 -40 -26
-16 10 -4 30 18 31 14 0 13 2 -3 9 -19 8 -19 9 3 9 17 1 22 -5 22 -23z m32 17
c-10 -4 -8 -8 5 -18 14 -11 16 -16 6 -26 -11 -11 -15 -10 -25 0 -10 11 -10 13
0 7 6 -4 12 -2 12 3 0 6 -4 11 -10 11 -5 0 -10 7 -10 15 0 8 8 15 18 14 11 0
12 -2 4 -6z m75 0 c-21 -6 -18 -40 4 -35 11 3 11 1 2 -8 -16 -17 -33 -4 -33
26 0 19 5 24 23 23 17 -1 18 -2 4 -6z m73 -17 c0 -14 -4 -27 -9 -30 -15 -10
-41 5 -41 23 0 23 9 31 32 31 12 0 18 -7 18 -24z m89 -3 c-2 -24 -2 -25 -6 -5
-2 12 -9 22 -14 22 -5 0 -9 -10 -10 -22 l0 -23 -9 23 c-5 12 -12 22 -15 22 -3
0 -10 -10 -15 -22 -8 -22 -9 -22 -9 5 -1 25 2 27 39 27 37 0 40 -2 39 -27z
m117 -1 c1 -18 1 -19 -3 -2 -6 26 -23 26 -23 0 0 -11 -4 -20 -10 -20 -5 0 -10
9 -10 20 0 27 -18 25 -23 -2 -4 -19 -4 -18 -6 5 -1 27 1 28 37 25 30 -2 37 -7
38 -26z m50 3 c-1 -27 -31 -27 -32 0 -1 14 4 21 16 21 12 0 17 -7 16 -21z
m-656 -105 c0 -5 -2 -10 -4 -10 -3 0 -8 5 -11 10 -3 6 -1 10 4 10 6 0 11 -4
11 -10z m254 -6 c5 -14 4 -15 -9 -4 -17 14 -19 20 -6 20 5 0 12 -7 15 -16z
m-634 -14 c0 -5 -2 -10 -4 -10 -3 0 -8 5 -11 10 -3 6 -1 10 4 10 6 0 11 -4 11
-10z m150 0 c0 -5 -2 -10 -4 -10 -3 0 -8 5 -11 10 -3 6 -1 10 4 10 6 0 11 -4
11 -10z"/>
<path d="M210 269 c0 -5 5 -7 10 -4 6 3 10 8 10 11 0 2 -4 4 -10 4 -5 0 -10
-5 -10 -11z"/>
<path d="M360 270 c0 -5 5 -10 10 -10 6 0 10 5 10 10 0 6 -4 10 -10 10 -5 0
-10 -4 -10 -10z"/>
<path d="M1000 269 c0 -5 5 -7 10 -4 6 3 10 8 10 11 0 2 -4 4 -10 4 -5 0 -10
-5 -10 -11z"/>
<path d="M1175 290 c-8 -13 4 -32 16 -25 12 8 12 35 0 35 -6 0 -13 -4 -16 -10z"/>
</g>
</svg>
