<?xml version="1.0" encoding="UTF-8"?>
<svg xmlns="http://www.w3.org/2000/svg" xmlns:xlink="http://www.w3.org/1999/xlink" width="679px" height="512px" viewBox="0 0 679 512" version="1.1">
<g id="surface1">
<path style=" stroke:none;fill-rule:nonzero;fill:rgb(100%,100%,100%);fill-opacity:1;" d="M 516.71875 89.125 L 516.71875 310.871094 C 516.71875 319.445312 509.773438 326.394531 501.203125 326.394531 L 174.453125 326.394531 C 165.882812 326.394531 158.9375 319.445312 158.9375 310.871094 L 158.9375 89.125 C 158.9375 80.550781 165.882812 73.601562 174.453125 73.601562 L 501.203125 73.601562 C 509.773438 73.601562 516.71875 80.550781 516.71875 89.125 Z M 516.71875 89.125 "/>
<path style=" stroke:none;fill-rule:nonzero;fill:rgb(13.72549%,12.156863%,12.54902%);fill-opacity:1;" d="M 501.203125 327.175781 L 174.453125 327.175781 C 165.460938 327.15625 158.183594 319.867188 158.171875 310.871094 L 158.171875 89.125 C 158.183594 80.132812 165.460938 72.839844 174.453125 72.820312 L 501.203125 72.820312 C 510.195312 72.839844 517.480469 80.128906 517.5 89.125 L 517.5 310.871094 C 517.480469 319.867188 510.195312 327.15625 501.203125 327.175781 Z M 174.453125 74.367188 C 166.3125 74.375 159.71875 80.980469 159.71875 89.125 L 159.71875 310.871094 C 159.71875 319.015625 166.3125 325.621094 174.453125 325.628906 L 501.203125 325.628906 C 509.347656 325.621094 515.945312 319.019531 515.957031 310.871094 L 515.957031 89.125 C 515.945312 80.976562 509.347656 74.375 501.203125 74.367188 Z M 174.453125 74.367188 "/>
<path style=" stroke:none;fill-rule:nonzero;fill:rgb(13.72549%,12.156863%,12.54902%);fill-opacity:1;" d="M 516.71875 89.125 L 516.71875 286.027344 L 158.9375 286.027344 L 158.9375 89.125 C 158.9375 80.550781 165.882812 73.601562 174.453125 73.601562 L 501.203125 73.601562 C 509.773438 73.601562 516.71875 80.550781 516.71875 89.125 Z M 516.71875 89.125 "/>
<path style=" stroke:none;fill-rule:nonzero;fill:rgb(40.784314%,88.235294%,99.215686%);fill-opacity:1;" d="M 173.621094 92.011719 L 497.773438 92.011719 L 497.773438 271.386719 L 173.621094 271.386719 Z M 173.621094 92.011719 "/>
<path style=" stroke:none;fill-rule:nonzero;fill:rgb(81.960784%,82.745098%,83.137255%);fill-opacity:1;" d="M 333.40625 314.488281 C 328.832031 314.488281 325.121094 310.777344 325.121094 306.203125 C 325.121094 301.625 328.832031 297.914062 333.40625 297.914062 C 337.980469 297.914062 341.691406 301.625 341.691406 306.203125 C 341.679688 310.773438 337.976562 314.480469 333.40625 314.488281 Z M 333.40625 299.628906 C 329.765625 299.628906 326.816406 302.582031 326.820312 306.222656 C 326.824219 309.867188 329.777344 312.8125 333.417969 312.808594 C 337.058594 312.800781 340 309.84375 339.992188 306.203125 C 339.984375 302.570312 337.035156 299.628906 333.40625 299.628906 Z M 333.40625 299.628906 "/>
<path style=" stroke:none;fill-rule:nonzero;fill:rgb(100%,100%,100%);fill-opacity:1;" d="M 380.085938 354.5 C 376.691406 349.40625 376.0625 326.359375 376.0625 326.359375 L 299.574219 326.359375 C 299.574219 326.359375 299.015625 349.457031 295.570312 354.5 C 292.121094 359.546875 278.59375 367.78125 278.59375 370.703125 C 278.59375 373.625 280.597656 374.675781 290.355469 374.675781 L 385.332031 374.675781 C 395.09375 374.675781 397.097656 373.625 397.097656 370.703125 C 397.097656 367.78125 383.53125 359.597656 380.085938 354.5 Z M 380.085938 354.5 "/>
<path style=" stroke:none;fill-rule:nonzero;fill:rgb(13.72549%,12.156863%,12.54902%);fill-opacity:1;" d="M 385.332031 375.492188 L 290.410156 375.492188 C 281.734375 375.492188 277.863281 374.8125 277.863281 370.738281 C 277.863281 368.902344 280.816406 366.441406 286.027344 362.246094 C 289.644531 359.339844 293.378906 356.351562 294.921875 354.078125 C 298.199219 349.289062 298.792969 326.597656 298.8125 326.359375 C 298.820312 325.945312 299.160156 325.613281 299.574219 325.613281 L 376.0625 325.613281 C 376.484375 325.605469 376.835938 325.9375 376.84375 326.359375 C 376.84375 326.597656 377.457031 349.289062 380.730469 354.078125 C 382.277344 356.351562 386.011719 359.339844 389.628906 362.246094 C 394.839844 366.421875 397.792969 368.886719 397.792969 370.738281 C 397.792969 374.882812 393.921875 375.492188 385.332031 375.492188 Z M 300.457031 327.175781 C 300.320312 331.285156 299.539062 350.273438 296.332031 354.976562 C 294.636719 357.441406 290.816406 360.511719 287.113281 363.46875 C 283.925781 366.03125 279.527344 369.546875 279.527344 370.738281 C 279.527344 372.671875 280.308594 373.945312 290.527344 373.945312 L 385.332031 373.945312 C 395.515625 373.945312 396.316406 372.671875 396.316406 370.738281 C 396.316406 369.546875 391.9375 366.03125 388.746094 363.46875 C 385.042969 360.511719 381.207031 357.441406 379.527344 354.976562 C 376.320312 350.273438 375.539062 331.285156 375.402344 327.175781 Z M 300.457031 327.175781 "/>
<path style=" stroke:none;fill-rule:nonzero;fill:rgb(81.960784%,82.745098%,83.137255%);fill-opacity:1;" d="M 374.722656 351.410156 L 300.933594 351.410156 C 300.464844 351.410156 300.085938 351.03125 300.085938 350.5625 C 300.085938 350.09375 300.464844 349.710938 300.933594 349.710938 L 374.722656 349.710938 C 375.191406 349.710938 375.570312 350.09375 375.570312 350.5625 C 375.5625 351.027344 375.1875 351.402344 374.722656 351.410156 Z M 374.722656 351.410156 "/>
<path style=" stroke:none;fill-rule:nonzero;fill:rgb(100%,100%,100%);fill-opacity:1;" d="M 489.695312 396.957031 C 504.820312 392.898438 517.3125 395.160156 527.734375 397.402344 C 542.164062 400.507812 550.039062 405.992188 550.210938 414.128906 C 550.378906 422.261719 536.765625 423.960938 522.421875 422.367188 C 508.078125 420.769531 476.25 409.117188 474.894531 404.125 C 474.214844 401.390625 483.601562 398.519531 489.695312 396.957031 Z M 489.695312 396.957031 "/>
<path style=" stroke:none;fill-rule:nonzero;fill:rgb(13.72549%,12.156863%,12.54902%);fill-opacity:1;" d="M 531.625 423.589844 C 528.519531 423.578125 525.421875 423.398438 522.335938 423.042969 C 508.757812 421.535156 475.722656 410.054688 474.179688 404.246094 C 473.6875 402.410156 475.113281 400 489.457031 396.125 C 504.359375 392.117188 516.617188 394.140625 527.871094 396.566406 C 543.011719 399.8125 550.769531 405.6875 550.957031 414.027344 C 551.023438 416.085938 550.164062 418.066406 548.613281 419.425781 C 545.015625 422.738281 537.886719 423.589844 531.625 423.589844 Z M 506.652344 395.414062 C 500.996094 395.410156 495.363281 396.152344 489.898438 397.621094 C 475.488281 401.511719 475.605469 403.617188 475.671875 403.855469 C 476.828125 408.167969 507.925781 419.886719 522.523438 421.515625 C 534.542969 422.839844 543.929688 421.636719 547.597656 418.273438 C 548.828125 417.230469 549.503906 415.671875 549.429688 414.0625 C 549.277344 406.539062 541.925781 401.152344 527.582031 398.078125 C 520.722656 396.4375 513.707031 395.542969 506.652344 395.414062 Z M 489.679688 396.875 Z M 489.679688 396.875 "/>
<path style=" stroke:none;fill-rule:nonzero;fill:rgb(13.72549%,12.156863%,12.54902%);fill-opacity:1;" d="M 533.015625 423.910156 C 527.023438 423.910156 522.574219 421.789062 518.042969 419.242188 C 516.34375 418.273438 514.207031 416.980469 511.761719 415.488281 C 504.257812 410.886719 493.972656 404.585938 486.929688 402.988281 C 478.238281 401.035156 475.605469 404.464844 475.570312 404.5 C 475.3125 404.820312 474.847656 404.886719 474.511719 404.648438 C 474.171875 404.410156 474.082031 403.949219 474.296875 403.597656 C 474.433594 403.429688 477.457031 399.269531 487.265625 401.476562 C 494.566406 403.175781 504.972656 409.492188 512.578125 414.164062 C 515.003906 415.640625 517.109375 416.929688 518.808594 417.882812 C 525.496094 421.652344 531.519531 424.25 542.828125 420.648438 C 543.023438 420.585938 543.238281 420.605469 543.425781 420.699219 C 543.609375 420.796875 543.75 420.960938 543.8125 421.160156 C 543.933594 421.566406 543.707031 421.996094 543.300781 422.128906 C 539.984375 423.25 536.515625 423.851562 533.015625 423.910156 Z M 533.015625 423.910156 "/>
<path style=" stroke:none;fill-rule:nonzero;fill:rgb(100%,100%,100%);fill-opacity:1;" d="M 469.308594 432.027344 L 206.363281 432.027344 L 235.648438 395.089844 L 448.511719 395.089844 Z M 469.308594 432.027344 "/>
<path style=" stroke:none;fill-rule:nonzero;fill:rgb(13.72549%,12.156863%,12.54902%);fill-opacity:1;" d="M 469.308594 432.808594 L 206.363281 432.808594 C 206.070312 432.808594 205.800781 432.636719 205.671875 432.371094 C 205.542969 432.105469 205.574219 431.789062 205.753906 431.554688 L 235.035156 394.597656 C 235.183594 394.414062 235.410156 394.308594 235.648438 394.308594 L 448.511719 394.308594 C 448.789062 394.3125 449.042969 394.460938 449.175781 394.699219 L 469.96875 431.636719 C 470.105469 431.882812 470.105469 432.175781 469.96875 432.417969 C 469.835938 432.660156 469.582031 432.808594 469.308594 432.808594 Z M 207.894531 431.246094 L 467.96875 431.246094 L 448.140625 395.855469 L 235.953125 395.855469 Z M 207.894531 431.246094 "/>
<path style=" stroke:none;fill-rule:nonzero;fill:rgb(13.72549%,12.156863%,12.54902%);fill-opacity:1;" d="M 206.363281 432.027344 L 469.308594 432.027344 L 469.308594 438.398438 L 206.363281 438.398438 Z M 206.363281 432.027344 "/>
<path style=" stroke:none;fill-rule:nonzero;fill:rgb(13.72549%,12.156863%,12.54902%);fill-opacity:1;" d="M 469.308594 439.246094 L 206.363281 439.246094 C 205.894531 439.246094 205.515625 438.867188 205.515625 438.398438 L 205.515625 432.027344 C 205.515625 431.558594 205.894531 431.179688 206.363281 431.179688 L 469.308594 431.179688 C 469.777344 431.179688 470.15625 431.558594 470.15625 432.027344 L 470.15625 438.398438 C 470.15625 438.867188 469.777344 439.246094 469.308594 439.246094 Z M 207.214844 437.546875 L 468.511719 437.546875 L 468.511719 432.878906 L 207.214844 432.878906 Z M 207.214844 437.546875 "/>
<path style=" stroke:none;fill-rule:nonzero;fill:rgb(81.960784%,82.745098%,83.137255%);fill-opacity:1;" d="M 369.121094 427.070312 L 292.054688 427.070312 C 291.914062 427.070312 291.78125 427 291.699219 426.882812 C 291.640625 426.757812 291.640625 426.617188 291.699219 426.492188 L 294.058594 419.972656 C 294.113281 419.800781 294.269531 419.6875 294.449219 419.683594 L 368.527344 419.683594 C 368.742188 419.691406 368.917969 419.859375 368.933594 420.074219 L 369.597656 426.59375 C 369.597656 426.71875 369.554688 426.839844 369.476562 426.933594 C 369.390625 427.039062 369.253906 427.089844 369.121094 427.070312 Z M 292.734375 426.21875 L 368.730469 426.21875 L 368.171875 420.53125 L 294.703125 420.53125 Z M 292.734375 426.21875 "/>
<path style=" stroke:none;fill-rule:nonzero;fill:rgb(81.960784%,82.745098%,83.137255%);fill-opacity:1;" d="M 289.578125 427.070312 L 270.34375 427.070312 C 270.195312 427.066406 270.054688 426.992188 269.96875 426.867188 C 269.902344 426.738281 269.902344 426.585938 269.96875 426.457031 L 273.160156 419.921875 C 273.242188 419.777344 273.390625 419.6875 273.550781 419.683594 L 291.96875 419.683594 C 292.113281 419.679688 292.246094 419.75 292.328125 419.867188 C 292.394531 419.992188 292.394531 420.136719 292.328125 420.257812 L 289.882812 426.796875 C 289.828125 426.929688 289.714844 427.03125 289.578125 427.070312 Z M 271.023438 426.21875 L 289.289062 426.21875 L 291.410156 420.53125 L 273.789062 420.53125 Z M 271.023438 426.21875 "/>
<path style=" stroke:none;fill-rule:nonzero;fill:rgb(81.960784%,82.745098%,83.137255%);fill-opacity:1;" d="M 314.75 419.191406 L 296.417969 419.191406 C 296.277344 419.191406 296.148438 419.128906 296.0625 419.019531 C 295.996094 418.898438 295.996094 418.75 296.0625 418.628906 L 298.148438 412.683594 C 298.207031 412.515625 298.363281 412.402344 298.539062 412.398438 L 316.210938 412.398438 C 316.335938 412.402344 316.453125 412.464844 316.53125 412.566406 C 316.617188 412.664062 316.652344 412.796875 316.617188 412.921875 L 315.207031 418.867188 C 315.164062 419.078125 314.964844 419.222656 314.75 419.191406 Z M 297.011719 418.339844 L 314.410156 418.339844 L 315.617188 413.246094 L 298.761719 413.246094 Z M 297.011719 418.339844 "/>
<path style=" stroke:none;fill-rule:nonzero;fill:rgb(81.960784%,82.745098%,83.137255%);fill-opacity:1;" d="M 335.410156 419.191406 L 317.058594 419.191406 C 316.933594 419.1875 316.816406 419.128906 316.734375 419.03125 C 316.65625 418.933594 316.625 418.804688 316.652344 418.679688 L 317.957031 412.734375 C 318.003906 412.539062 318.179688 412.398438 318.382812 412.398438 L 336.105469 412.398438 C 336.226562 412.398438 336.34375 412.445312 336.425781 412.53125 C 336.5 412.628906 336.539062 412.75 336.53125 412.871094 L 335.882812 418.816406 C 335.871094 418.929688 335.8125 419.03125 335.726562 419.101562 C 335.636719 419.171875 335.523438 419.203125 335.410156 419.191406 Z M 317.585938 418.339844 L 335.019531 418.339844 L 335.5625 413.246094 L 318.722656 413.246094 Z M 317.585938 418.339844 "/>
<path style=" stroke:none;fill-rule:nonzero;fill:rgb(81.960784%,82.745098%,83.137255%);fill-opacity:1;" d="M 356.050781 419.191406 L 337.800781 419.191406 C 337.679688 419.1875 337.566406 419.140625 337.480469 419.054688 C 337.398438 418.96875 337.359375 418.847656 337.378906 418.730469 L 337.921875 412.789062 C 337.9375 412.566406 338.125 412.394531 338.34375 412.398438 L 356 412.398438 C 356.234375 412.398438 356.425781 412.585938 356.425781 412.820312 L 356.558594 418.75 C 356.566406 418.867188 356.523438 418.984375 356.441406 419.070312 C 356.335938 419.164062 356.191406 419.207031 356.050781 419.191406 Z M 338.175781 418.339844 L 355.609375 418.339844 L 355.507812 413.246094 L 338.652344 413.246094 Z M 338.175781 418.339844 "/>
<path style=" stroke:none;fill-rule:nonzero;fill:rgb(81.960784%,82.745098%,83.137255%);fill-opacity:1;" d="M 376.710938 419.191406 L 358.359375 419.191406 C 358.132812 419.183594 357.953125 419.007812 357.933594 418.78125 L 357.714844 412.839844 C 357.710938 412.722656 357.753906 412.613281 357.832031 412.53125 C 357.910156 412.445312 358.023438 412.398438 358.136719 412.398438 L 375.792969 412.398438 C 376.003906 412.394531 376.183594 412.546875 376.21875 412.753906 L 377.117188 418.695312 C 377.140625 418.820312 377.101562 418.945312 377.015625 419.035156 C 376.945312 419.136719 376.832031 419.195312 376.710938 419.191406 Z M 358.765625 418.339844 L 376.199219 418.339844 L 375.4375 413.246094 L 358.578125 413.246094 Z M 358.765625 418.339844 "/>
<path style=" stroke:none;fill-rule:nonzero;fill:rgb(81.960784%,82.745098%,83.137255%);fill-opacity:1;" d="M 397.351562 419.191406 L 379 419.191406 C 378.796875 419.183594 378.625 419.035156 378.59375 418.832031 L 377.609375 412.890625 C 377.582031 412.765625 377.613281 412.640625 377.695312 412.542969 C 377.773438 412.449219 377.890625 412.394531 378.015625 412.398438 L 395.6875 412.398438 C 395.875 412.402344 396.039062 412.523438 396.09375 412.703125 L 397.792969 418.644531 C 397.851562 418.761719 397.851562 418.902344 397.792969 419.019531 C 397.691406 419.15625 397.519531 419.222656 397.351562 419.191406 Z M 379.375 418.339844 L 396.789062 418.339844 L 395.363281 413.246094 L 378.542969 413.246094 Z M 379.375 418.339844 "/>
<path style=" stroke:none;fill-rule:nonzero;fill:rgb(81.960784%,82.745098%,83.137255%);fill-opacity:1;" d="M 417.992188 419.191406 L 399.660156 419.191406 C 399.472656 419.191406 399.304688 419.066406 399.253906 418.882812 L 397.554688 412.941406 C 397.488281 412.824219 397.488281 412.683594 397.554688 412.566406 C 397.632812 412.460938 397.761719 412.398438 397.894531 412.398438 L 415.546875 412.398438 C 415.722656 412.398438 415.875 412.507812 415.9375 412.667969 L 418.382812 418.613281 C 418.449219 418.734375 418.449219 418.882812 418.382812 419.003906 C 418.300781 419.136719 418.148438 419.207031 417.992188 419.191406 Z M 399.980469 418.339844 L 417.363281 418.339844 L 415.277344 413.246094 L 398.472656 413.246094 Z M 399.980469 418.339844 "/>
<path style=" stroke:none;fill-rule:nonzero;fill:rgb(81.960784%,82.745098%,83.137255%);fill-opacity:1;" d="M 282.652344 412.023438 L 263.792969 412.023438 C 263.636719 412.019531 263.496094 411.9375 263.417969 411.800781 C 263.351562 411.667969 263.351562 411.511719 263.417969 411.378906 L 266.507812 405.960938 C 266.578125 405.824219 266.714844 405.742188 266.863281 405.738281 L 285.179688 405.738281 C 285.328125 405.730469 285.46875 405.808594 285.535156 405.941406 C 285.601562 406.070312 285.601562 406.222656 285.535156 406.351562 L 283.058594 411.769531 C 282.988281 411.929688 282.824219 412.03125 282.652344 412.023438 Z M 264.519531 411.171875 L 282.378906 411.171875 L 284.46875 406.589844 L 267.1875 406.589844 Z M 264.519531 411.171875 "/>
<path style=" stroke:none;fill-rule:nonzero;fill:rgb(81.960784%,82.745098%,83.137255%);fill-opacity:1;" d="M 303.851562 412.023438 L 285.027344 412.023438 C 284.882812 412.027344 284.75 411.957031 284.671875 411.835938 C 284.605469 411.707031 284.605469 411.554688 284.671875 411.429688 L 287.0625 405.992188 C 287.132812 405.839844 287.285156 405.738281 287.453125 405.738281 L 305.550781 405.738281 C 305.683594 405.742188 305.808594 405.804688 305.890625 405.910156 C 305.949219 406.03125 305.949219 406.175781 305.890625 406.300781 L 304.191406 411.734375 C 304.140625 411.882812 304.007812 411.996094 303.851562 412.023438 Z M 285.636719 411.171875 L 303.546875 411.171875 L 305.007812 406.589844 L 287.691406 406.589844 Z M 285.636719 411.171875 "/>
<path style=" stroke:none;fill-rule:nonzero;fill:rgb(81.960784%,82.745098%,83.137255%);fill-opacity:1;" d="M 325.121094 412.023438 L 306.261719 412.023438 C 306.128906 412.023438 306.003906 411.960938 305.921875 411.851562 C 305.867188 411.734375 305.867188 411.597656 305.921875 411.480469 L 307.621094 406.042969 C 307.671875 405.863281 307.839844 405.738281 308.027344 405.738281 L 326.089844 405.738281 C 326.214844 405.738281 326.332031 405.796875 326.414062 405.890625 C 326.496094 405.988281 326.535156 406.121094 326.515625 406.25 L 325.546875 411.667969 C 325.5 411.867188 325.328125 412.011719 325.121094 412.023438 Z M 306.824219 411.171875 L 324.765625 411.171875 L 325.582031 406.589844 L 308.214844 406.589844 Z M 306.824219 411.171875 "/>
<path style=" stroke:none;fill-rule:nonzero;fill:rgb(81.960784%,82.745098%,83.137255%);fill-opacity:1;" d="M 346.289062 412.023438 L 327.5 412.023438 C 327.375 412.023438 327.257812 411.964844 327.175781 411.871094 C 327.09375 411.777344 327.054688 411.652344 327.074219 411.53125 L 327.957031 406.097656 C 327.996094 405.890625 328.171875 405.742188 328.382812 405.738281 L 346.578125 405.738281 C 346.695312 405.742188 346.804688 405.789062 346.882812 405.875 C 346.964844 405.957031 347.007812 406.066406 347.003906 406.179688 L 346.78125 411.617188 C 346.777344 411.738281 346.722656 411.851562 346.628906 411.929688 C 346.535156 412.007812 346.410156 412.042969 346.289062 412.023438 Z M 327.921875 411.171875 L 345.949219 411.171875 L 346.136719 406.589844 L 328.738281 406.589844 Z M 327.921875 411.171875 "/>
<path style=" stroke:none;fill-rule:nonzero;fill:rgb(81.960784%,82.745098%,83.137255%);fill-opacity:1;" d="M 367.59375 412.023438 L 348.734375 412.023438 C 348.617188 412.019531 348.507812 411.972656 348.429688 411.886719 C 348.347656 411.808594 348.304688 411.695312 348.308594 411.582031 L 348.445312 406.164062 C 348.445312 405.929688 348.636719 405.738281 348.871094 405.738281 L 367.050781 405.738281 C 367.273438 405.738281 367.457031 405.910156 367.476562 406.128906 L 368.019531 411.546875 C 368.027344 411.667969 367.992188 411.792969 367.917969 411.886719 C 367.832031 411.972656 367.714844 412.023438 367.59375 412.023438 Z M 349.175781 411.171875 L 367.117188 411.171875 L 366.675781 406.589844 L 349.277344 406.589844 Z M 349.175781 411.171875 "/>
<path style=" stroke:none;fill-rule:nonzero;fill:rgb(81.960784%,82.745098%,83.137255%);fill-opacity:1;" d="M 388.828125 412.023438 L 370.054688 412.023438 C 369.84375 412.015625 369.664062 411.859375 369.628906 411.648438 L 369.003906 406.214844 C 368.996094 406.09375 369.039062 405.980469 369.121094 405.890625 C 369.191406 405.792969 369.304688 405.734375 369.425781 405.738281 L 387.539062 405.738281 C 387.734375 405.742188 387.898438 405.875 387.945312 406.0625 L 389.238281 411.496094 C 389.289062 411.609375 389.289062 411.738281 389.238281 411.851562 C 389.140625 411.976562 388.984375 412.042969 388.828125 412.023438 Z M 370.34375 411.171875 L 388.285156 411.171875 L 387.199219 406.589844 L 369.816406 406.589844 Z M 370.34375 411.171875 "/>
<path style=" stroke:none;fill-rule:nonzero;fill:rgb(81.960784%,82.745098%,83.137255%);fill-opacity:1;" d="M 409.757812 412.023438 L 390.898438 412.023438 C 390.703125 412.027344 390.535156 411.890625 390.492188 411.699219 L 389.117188 406.265625 C 389.085938 406.140625 389.117188 406.007812 389.203125 405.910156 C 389.277344 405.804688 389.398438 405.742188 389.523438 405.738281 L 407.722656 405.738281 C 407.894531 405.742188 408.050781 405.847656 408.113281 406.011719 L 410.148438 411.445312 C 410.210938 411.570312 410.210938 411.714844 410.148438 411.835938 C 410.0625 411.960938 409.914062 412.03125 409.757812 412.023438 Z M 391.222656 411.171875 L 409.097656 411.171875 L 407.398438 406.589844 L 390.070312 406.589844 Z M 391.222656 411.171875 "/>
<path style=" stroke:none;fill-rule:nonzero;fill:rgb(81.960784%,82.745098%,83.137255%);fill-opacity:1;" d="M 430.996094 412.023438 L 412.136719 412.023438 C 411.960938 412.027344 411.804688 411.917969 411.746094 411.75 L 409.625 406.316406 C 409.566406 406.191406 409.566406 406.050781 409.625 405.925781 C 409.707031 405.808594 409.839844 405.742188 409.980469 405.738281 L 428.175781 405.738281 C 428.335938 405.742188 428.480469 405.832031 428.550781 405.976562 L 431.335938 411.394531 C 431.410156 411.527344 431.410156 411.6875 431.335938 411.820312 C 431.265625 411.941406 431.136719 412.019531 430.996094 412.023438 Z M 412.425781 411.171875 L 430.300781 411.171875 L 427.941406 406.589844 L 410.625 406.589844 Z M 412.425781 411.171875 "/>
<path style=" stroke:none;fill-rule:nonzero;fill:rgb(81.960784%,82.745098%,83.137255%);fill-opacity:1;" d="M 452.230469 412.023438 L 433.371094 412.023438 C 433.214844 412.023438 433.074219 411.9375 433 411.800781 L 430.113281 406.367188 C 430.046875 406.234375 430.046875 406.078125 430.113281 405.941406 C 430.191406 405.824219 430.324219 405.746094 430.46875 405.738281 L 448.667969 405.738281 C 448.8125 405.738281 448.949219 405.816406 449.023438 405.941406 L 452.570312 411.359375 C 452.65625 411.496094 452.65625 411.667969 452.570312 411.800781 C 452.503906 411.929688 452.375 412.011719 452.230469 412.023438 Z M 433.558594 411.171875 L 451.535156 411.171875 L 448.546875 406.589844 L 431.164062 406.589844 Z M 433.558594 411.171875 "/>
<path style=" stroke:none;fill-rule:nonzero;fill:rgb(81.960784%,82.745098%,83.137255%);fill-opacity:1;" d="M 251.910156 405.449219 L 234.847656 405.449219 C 234.679688 405.445312 234.53125 405.347656 234.457031 405.195312 C 234.375 405.058594 234.375 404.890625 234.457031 404.753906 L 238.480469 399.777344 C 238.554688 399.671875 238.675781 399.609375 238.804688 399.609375 L 255.269531 399.609375 C 255.429688 399.613281 255.570312 399.703125 255.644531 399.84375 C 255.71875 399.984375 255.710938 400.152344 255.625 400.289062 L 252.230469 405.261719 C 252.160156 405.375 252.039062 405.445312 251.910156 405.449219 Z M 235.730469 404.601562 L 251.671875 404.601562 L 254.523438 400.457031 L 239.058594 400.457031 Z M 235.730469 404.601562 "/>
<path style=" stroke:none;fill-rule:nonzero;fill:rgb(81.960784%,82.745098%,83.137255%);fill-opacity:1;" d="M 272.210938 405.449219 L 254.167969 405.449219 C 254.007812 405.441406 253.867188 405.351562 253.792969 405.210938 C 253.710938 405.082031 253.710938 404.917969 253.792969 404.789062 L 257.1875 399.796875 C 257.265625 399.675781 257.402344 399.601562 257.542969 399.609375 L 274.996094 399.609375 C 275.144531 399.609375 275.28125 399.695312 275.351562 399.828125 C 275.4375 399.953125 275.4375 400.113281 275.351562 400.238281 L 272.617188 405.230469 C 272.542969 405.382812 272.378906 405.46875 272.210938 405.449219 Z M 254.964844 404.601562 L 271.941406 404.601562 L 274.195312 400.457031 L 257.714844 400.457031 Z M 254.964844 404.601562 "/>
<path style=" stroke:none;fill-rule:nonzero;fill:rgb(81.960784%,82.745098%,83.137255%);fill-opacity:1;" d="M 292.53125 405.449219 L 274.484375 405.449219 C 274.335938 405.449219 274.199219 405.363281 274.128906 405.230469 C 274.054688 405.105469 274.054688 404.945312 274.128906 404.820312 L 276.792969 399.847656 C 276.859375 399.699219 277.007812 399.605469 277.167969 399.609375 L 294.601562 399.609375 C 294.742188 399.617188 294.871094 399.683594 294.957031 399.796875 C 295.015625 399.925781 295.015625 400.074219 294.957031 400.203125 L 292.921875 405.179688 C 292.851562 405.335938 292.699219 405.441406 292.53125 405.449219 Z M 275.199219 404.601562 L 292.171875 404.601562 L 293.871094 400.457031 L 277.320312 400.457031 Z M 275.199219 404.601562 "/>
<path style=" stroke:none;fill-rule:nonzero;fill:rgb(81.960784%,82.745098%,83.137255%);fill-opacity:1;" d="M 312.847656 405.449219 L 294.804688 405.449219 C 294.664062 405.441406 294.535156 405.371094 294.460938 405.253906 C 294.382812 405.132812 294.367188 404.988281 294.414062 404.855469 L 296.382812 399.878906 C 296.449219 399.722656 296.601562 399.613281 296.773438 399.609375 L 314.207031 399.609375 C 314.339844 399.609375 314.464844 399.671875 314.546875 399.777344 C 314.605469 399.894531 314.605469 400.035156 314.546875 400.152344 L 313.207031 405.128906 C 313.160156 405.296875 313.019531 405.421875 312.847656 405.449219 Z M 295.433594 404.601562 L 312.527344 404.601562 L 313.648438 400.457031 L 297.0625 400.457031 Z M 295.433594 404.601562 "/>
<path style=" stroke:none;fill-rule:nonzero;fill:rgb(81.960784%,82.745098%,83.137255%);fill-opacity:1;" d="M 333.167969 405.449219 L 315.125 405.449219 C 314.996094 405.449219 314.875 405.386719 314.800781 405.28125 C 314.742188 405.164062 314.742188 405.023438 314.800781 404.90625 L 316.074219 399.929688 C 316.125 399.746094 316.289062 399.617188 316.480469 399.609375 L 333.914062 399.609375 C 334.039062 399.609375 334.15625 399.664062 334.238281 399.761719 C 334.324219 399.851562 334.363281 399.976562 334.339844 400.101562 L 333.675781 405.078125 C 333.664062 405.195312 333.601562 405.304688 333.507812 405.378906 C 333.410156 405.449219 333.285156 405.476562 333.167969 405.449219 Z M 315.667969 404.601562 L 332.8125 404.601562 L 333.355469 400.457031 L 316.738281 400.457031 Z M 315.667969 404.601562 "/>
<path style=" stroke:none;fill-rule:nonzero;fill:rgb(81.960784%,82.745098%,83.137255%);fill-opacity:1;" d="M 353.503906 405.449219 L 335.441406 405.449219 C 335.320312 405.453125 335.207031 405.398438 335.136719 405.296875 C 335.054688 405.210938 335.011719 405.09375 335.019531 404.976562 L 335.613281 399.980469 C 335.636719 399.773438 335.8125 399.613281 336.019531 399.609375 L 353.453125 399.609375 C 353.6875 399.609375 353.878906 399.796875 353.878906 400.03125 L 353.878906 405.007812 C 353.875 405.125 353.828125 405.234375 353.742188 405.316406 C 353.683594 405.386719 353.597656 405.433594 353.503906 405.449219 Z M 335.917969 404.601562 L 353.078125 404.601562 L 353.078125 400.457031 L 336.445312 400.457031 Z M 335.917969 404.601562 "/>
<path style=" stroke:none;fill-rule:nonzero;fill:rgb(81.960784%,82.745098%,83.137255%);fill-opacity:1;" d="M 373.449219 405.449219 L 355.472656 405.449219 C 355.238281 405.449219 355.050781 405.261719 355.050781 405.027344 L 354.945312 400.050781 C 354.941406 399.9375 354.984375 399.824219 355.066406 399.746094 C 355.144531 399.660156 355.253906 399.609375 355.371094 399.609375 L 372.804688 399.609375 C 373.019531 399.613281 373.195312 399.769531 373.230469 399.980469 L 373.941406 404.957031 C 373.960938 405.082031 373.921875 405.203125 373.839844 405.296875 C 373.742188 405.40625 373.597656 405.460938 373.449219 405.449219 Z M 355.8125 404.601562 L 372.957031 404.601562 L 372.363281 400.457031 L 355.726562 400.457031 Z M 355.8125 404.601562 "/>
<path style=" stroke:none;fill-rule:nonzero;fill:rgb(81.960784%,82.745098%,83.137255%);fill-opacity:1;" d="M 393.820312 405.449219 L 375.792969 405.449219 C 375.578125 405.445312 375.402344 405.289062 375.367188 405.078125 L 374.570312 400.101562 C 374.554688 399.976562 374.589844 399.855469 374.671875 399.761719 C 374.753906 399.671875 374.871094 399.617188 374.996094 399.609375 L 392.429688 399.609375 C 392.621094 399.617188 392.785156 399.746094 392.835938 399.929688 L 394.246094 404.90625 C 394.300781 405.023438 394.300781 405.164062 394.246094 405.28125 C 394.144531 405.410156 393.980469 405.476562 393.820312 405.449219 Z M 376.132812 404.601562 L 393.261719 404.601562 L 392.089844 400.457031 L 375.488281 400.457031 Z M 376.132812 404.601562 "/>
<path style=" stroke:none;fill-rule:nonzero;fill:rgb(81.960784%,82.745098%,83.137255%);fill-opacity:1;" d="M 416.871094 405.449219 L 396.113281 405.449219 C 395.925781 405.445312 395.761719 405.324219 395.703125 405.144531 L 394.210938 400.167969 C 394.160156 400.042969 394.160156 399.902344 394.210938 399.777344 C 394.292969 399.671875 394.417969 399.609375 394.550781 399.609375 L 414.597656 399.609375 C 414.765625 399.609375 414.921875 399.707031 414.988281 399.863281 L 417.195312 404.839844 C 417.253906 404.96875 417.253906 405.117188 417.195312 405.246094 C 417.121094 405.359375 417.003906 405.433594 416.871094 405.449219 Z M 396.503906 404.601562 L 416.277344 404.601562 L 414.460938 400.457031 L 395.195312 400.457031 Z M 396.503906 404.601562 "/>
<path style=" stroke:none;fill-rule:nonzero;fill:rgb(81.960784%,82.745098%,83.137255%);fill-opacity:1;" d="M 447.917969 405.449219 L 418.585938 405.449219 C 418.417969 405.449219 418.265625 405.351562 418.195312 405.195312 L 415.886719 400.203125 C 415.820312 400.074219 415.820312 399.921875 415.886719 399.796875 C 415.960938 399.667969 416.097656 399.589844 416.242188 399.589844 L 444.746094 399.589844 C 444.890625 399.597656 445.019531 399.675781 445.101562 399.796875 L 448.34375 404.769531 C 448.425781 404.898438 448.425781 405.066406 448.34375 405.195312 C 448.269531 405.359375 448.097656 405.460938 447.917969 405.449219 Z M 418.859375 404.601562 L 447.136719 404.601562 L 444.4375 400.457031 L 416.992188 400.457031 Z M 418.859375 404.601562 "/>
<path style=" stroke:none;fill-rule:nonzero;fill:rgb(81.960784%,82.745098%,83.137255%);fill-opacity:1;" d="M 456.917969 419.191406 L 420.300781 419.191406 C 420.132812 419.191406 419.976562 419.089844 419.910156 418.933594 L 417.398438 412.992188 C 417.332031 412.863281 417.332031 412.710938 417.398438 412.582031 C 417.476562 412.464844 417.613281 412.394531 417.753906 412.398438 L 452.996094 412.398438 C 453.144531 412.386719 453.285156 412.46875 453.351562 412.601562 L 457.238281 418.527344 C 457.324219 418.660156 457.324219 418.835938 457.238281 418.96875 C 457.171875 419.089844 457.054688 419.171875 456.917969 419.191406 Z M 420.589844 418.339844 L 456.136719 418.339844 L 452.738281 413.246094 L 418.433594 413.246094 Z M 420.589844 418.339844 "/>
<path style=" stroke:none;fill-rule:nonzero;fill:rgb(81.960784%,82.745098%,83.137255%);fill-opacity:1;" d="M 267.96875 427.070312 L 255.050781 427.070312 C 254.894531 427.066406 254.753906 426.984375 254.675781 426.847656 C 254.609375 426.714844 254.609375 426.558594 254.675781 426.425781 L 258.476562 419.902344 C 258.546875 419.769531 258.683594 419.683594 258.835938 419.683594 L 271.242188 419.683594 C 271.398438 419.675781 271.542969 419.753906 271.621094 419.882812 C 271.703125 420.011719 271.707031 420.175781 271.632812 420.3125 L 268.339844 426.832031 C 268.269531 426.972656 268.125 427.0625 267.96875 427.070312 Z M 255.796875 426.21875 L 267.679688 426.21875 L 270.546875 420.53125 L 259.074219 420.53125 Z M 255.796875 426.21875 "/>
<path style=" stroke:none;fill-rule:nonzero;fill:rgb(81.960784%,82.745098%,83.137255%);fill-opacity:1;" d="M 419.28125 427.070312 L 401.695312 427.070312 C 401.507812 427.066406 401.347656 426.941406 401.289062 426.765625 L 399.371094 420.226562 C 399.3125 420.109375 399.3125 419.96875 399.371094 419.851562 C 399.453125 419.746094 399.578125 419.683594 399.710938 419.683594 L 416.683594 419.683594 C 416.855469 419.6875 417.007812 419.796875 417.074219 419.953125 L 419.671875 426.476562 C 419.730469 426.605469 419.730469 426.753906 419.671875 426.882812 C 419.585938 427.007812 419.4375 427.078125 419.28125 427.070312 Z M 402.019531 426.21875 L 418.65625 426.21875 L 416.398438 420.53125 L 400.339844 420.53125 Z M 402.019531 426.21875 "/>
<path style=" stroke:none;fill-rule:nonzero;fill:rgb(81.960784%,82.745098%,83.137255%);fill-opacity:1;" d="M 440.671875 427.070312 L 423.085938 427.070312 C 422.910156 427.066406 422.757812 426.960938 422.695312 426.796875 L 419.945312 420.277344 C 419.886719 420.148438 419.886719 420 419.945312 419.867188 C 420.027344 419.753906 420.160156 419.683594 420.300781 419.683594 L 437.277344 419.683594 C 437.4375 419.679688 437.582031 419.773438 437.648438 419.921875 L 441.042969 426.441406 C 441.121094 426.574219 441.121094 426.734375 441.042969 426.867188 C 440.96875 427 440.824219 427.078125 440.671875 427.070312 Z M 423.375 426.21875 L 439.976562 426.21875 L 436.988281 420.53125 L 420.980469 420.53125 Z M 423.375 426.21875 "/>
<path style=" stroke:none;fill-rule:nonzero;fill:rgb(81.960784%,82.745098%,83.137255%);fill-opacity:1;" d="M 462.058594 427.070312 L 444.472656 427.070312 C 444.320312 427.070312 444.183594 426.984375 444.117188 426.847656 L 440.519531 420.3125 C 440.441406 420.183594 440.441406 420.027344 440.519531 419.902344 C 440.585938 419.769531 440.722656 419.683594 440.875 419.683594 L 457.851562 419.683594 C 457.992188 419.691406 458.125 419.765625 458.207031 419.886719 L 462.46875 426.40625 C 462.554688 426.542969 462.554688 426.714844 462.46875 426.847656 C 462.386719 426.996094 462.226562 427.082031 462.058594 427.070312 Z M 444.726562 426.21875 L 461.277344 426.21875 L 457.5625 420.53125 L 441.621094 420.53125 Z M 444.726562 426.21875 "/>
<path style=" stroke:none;fill-rule:nonzero;fill:rgb(81.960784%,82.745098%,83.137255%);fill-opacity:1;" d="M 397.351562 427.070312 L 373.753906 427.070312 C 373.546875 427.0625 373.375 426.902344 373.347656 426.695312 L 372.515625 420.15625 C 372.496094 420.039062 372.535156 419.921875 372.617188 419.835938 C 372.695312 419.734375 372.816406 419.679688 372.941406 419.683594 L 395.601562 419.683594 C 395.796875 419.683594 395.964844 419.816406 396.011719 420.003906 L 397.707031 426.527344 C 397.769531 426.644531 397.769531 426.78125 397.707031 426.898438 C 397.621094 427.007812 397.488281 427.074219 397.351562 427.070312 Z M 374.128906 426.21875 L 396.808594 426.21875 L 395.28125 420.53125 L 373.449219 420.53125 Z M 374.128906 426.21875 "/>
<path style=" stroke:none;fill-rule:nonzero;fill:rgb(81.960784%,82.745098%,83.137255%);fill-opacity:1;" d="M 252.300781 427.070312 L 236.359375 427.070312 C 236.195312 427.074219 236.042969 426.980469 235.96875 426.832031 C 235.894531 426.695312 235.894531 426.527344 235.96875 426.390625 L 240.484375 419.867188 C 240.566406 419.753906 240.699219 419.683594 240.839844 419.683594 L 256.117188 419.683594 C 256.269531 419.679688 256.410156 419.765625 256.476562 419.902344 C 256.558594 420.03125 256.558594 420.199219 256.476562 420.328125 L 252.589844 426.867188 C 252.523438 426.96875 252.417969 427.042969 252.300781 427.070312 Z M 237.15625 426.21875 L 252.0625 426.21875 L 255.457031 420.53125 L 241.046875 420.53125 Z M 237.15625 426.21875 "/>
<path style=" stroke:none;fill-rule:nonzero;fill:rgb(81.960784%,82.745098%,83.137255%);fill-opacity:1;" d="M 233.371094 427.070312 L 217.433594 427.070312 C 217.265625 427.074219 217.109375 426.980469 217.039062 426.832031 C 216.964844 426.679688 216.984375 426.5 217.09375 426.375 L 222.355469 419.851562 C 222.433594 419.75 222.550781 419.691406 222.679688 419.683594 L 237.957031 419.683594 C 238.121094 419.679688 238.273438 419.769531 238.347656 419.921875 C 238.421875 420.058594 238.421875 420.222656 238.347656 420.363281 L 233.710938 426.882812 C 233.632812 426.996094 233.507812 427.0625 233.371094 427.070312 Z M 218.316406 426.21875 L 233.152344 426.21875 L 237.191406 420.53125 L 222.882812 420.53125 Z M 218.316406 426.21875 "/>
<path style=" stroke:none;fill-rule:nonzero;fill:rgb(81.960784%,82.745098%,83.137255%);fill-opacity:1;" d="M 265.777344 419.191406 L 223.765625 419.191406 C 223.605469 419.191406 223.457031 419.097656 223.390625 418.953125 C 223.296875 418.8125 223.296875 418.632812 223.390625 418.492188 L 228.160156 412.550781 C 228.25 412.457031 228.371094 412.402344 228.5 412.398438 L 268.953125 412.398438 C 269.097656 412.402344 269.230469 412.476562 269.308594 412.601562 C 269.382812 412.730469 269.382812 412.894531 269.308594 413.023438 L 266.082031 418.96875 C 266.019531 419.085938 265.910156 419.167969 265.777344 419.191406 Z M 224.648438 418.339844 L 265.523438 418.339844 L 268.289062 413.246094 L 228.753906 413.246094 Z M 224.648438 418.339844 "/>
<path style=" stroke:none;fill-rule:nonzero;fill:rgb(81.960784%,82.745098%,83.137255%);fill-opacity:1;" d="M 261.277344 412.023438 L 229.535156 412.023438 C 229.378906 412.015625 229.234375 411.925781 229.164062 411.785156 C 229.070312 411.648438 229.070312 411.464844 229.164062 411.328125 L 233.523438 405.890625 C 233.613281 405.796875 233.734375 405.742188 233.863281 405.738281 L 264.417969 405.738281 C 264.574219 405.738281 264.71875 405.824219 264.792969 405.960938 C 264.859375 406.09375 264.859375 406.25 264.792969 406.382812 L 261.550781 411.820312 C 261.488281 411.917969 261.390625 411.992188 261.277344 412.023438 Z M 230.417969 411.171875 L 260.972656 411.171875 L 263.707031 406.589844 L 234.121094 406.589844 Z M 230.417969 411.171875 "/>
<path style=" stroke:none;fill-rule:nonzero;fill:rgb(81.960784%,82.745098%,83.137255%);fill-opacity:1;" d="M 293.667969 419.191406 L 267.253906 419.191406 C 267.109375 419.191406 266.972656 419.113281 266.898438 418.984375 C 266.820312 418.855469 266.820312 418.691406 266.898438 418.5625 L 270.054688 412.617188 C 270.136719 412.476562 270.285156 412.394531 270.445312 412.398438 L 295.90625 412.398438 C 296.050781 412.398438 296.183594 412.46875 296.265625 412.582031 C 296.324219 412.707031 296.324219 412.851562 296.265625 412.972656 L 294.09375 418.917969 C 294.023438 419.09375 293.851562 419.203125 293.667969 419.191406 Z M 268 418.339844 L 293.378906 418.339844 L 295.246094 413.246094 L 270.683594 413.246094 Z M 268 418.339844 "/>
<path style=" stroke:none;fill-rule:nonzero;fill:rgb(100%,100%,100%);fill-opacity:1;" d="M 244.796875 244.503906 C 244.566406 244.5 244.347656 244.394531 244.203125 244.214844 C 244.070312 244.054688 244.011719 243.851562 244.03125 243.644531 C 244.054688 243.441406 244.160156 243.253906 244.320312 243.125 L 418.738281 104.546875 C 418.953125 104.328125 419.269531 104.257812 419.558594 104.359375 C 419.84375 104.460938 420.042969 104.71875 420.074219 105.019531 C 420.101562 105.324219 419.953125 105.613281 419.691406 105.769531 L 245.289062 244.332031 C 245.148438 244.445312 244.976562 244.503906 244.796875 244.503906 Z M 244.796875 244.503906 "/>
<path style=" stroke:none;fill-rule:nonzero;fill:rgb(100%,100%,100%);fill-opacity:1;" d="M 340.992188 255.253906 C 340.664062 255.25 340.371094 255.035156 340.265625 254.722656 C 340.160156 254.410156 340.261719 254.066406 340.519531 253.859375 L 444.386719 173.820312 C 444.730469 173.5625 445.214844 173.632812 445.476562 173.972656 C 445.605469 174.132812 445.660156 174.339844 445.636719 174.542969 C 445.609375 174.75 445.503906 174.933594 445.339844 175.058594 L 341.453125 255.101562 C 341.320312 255.199219 341.160156 255.25 340.992188 255.253906 Z M 340.992188 255.253906 "/>
<path style=" stroke:none;fill-rule:nonzero;fill:rgb(100%,100%,100%);fill-opacity:1;" d="M 240.195312 157.5 C 239.871094 157.488281 239.585938 157.273438 239.480469 156.960938 C 239.378906 156.652344 239.480469 156.308594 239.738281 156.105469 L 279.953125 125.636719 C 280.292969 125.382812 280.777344 125.453125 281.039062 125.792969 C 281.167969 125.953125 281.226562 126.160156 281.199219 126.363281 C 281.175781 126.566406 281.066406 126.753906 280.902344 126.878906 L 240.671875 157.347656 C 240.53125 157.445312 240.367188 157.496094 240.195312 157.5 Z M 240.195312 157.5 "/>
</g>
</svg>
