<?xml version="1.0" standalone="no"?>
<!DOCTYPE svg PUBLIC "-//W3C//DTD SVG 20010904//EN"
 "http://www.w3.org/TR/2001/REC-SVG-20010904/DTD/svg10.dtd">
<svg version="1.0" xmlns="http://www.w3.org/2000/svg"
 width="433.000000pt" height="182.000000pt" viewBox="0 0 433.000000 182.000000"
 preserveAspectRatio="xMidYMid meet">

<g transform="translate(0.000000,182.000000) scale(0.100000,-0.100000)"
fill="#000000" stroke="none">
<path d="M2460 1110 c0 -266 4 -282 70 -300 21 -6 51 -8 65 -4 20 5 25 12 25
39 0 29 -4 34 -27 37 l-28 3 -3 212 -2 212 -43 12 c-23 6 -45 13 -49 16 -5 2
-8 -100 -8 -227z"/>
<path d="M1878 1308 c-38 -10 -38 -10 -38 -64 0 -53 0 -54 -30 -54 -28 0 -30
-2 -30 -40 0 -38 2 -40 29 -40 l29 0 4 -126 c3 -124 3 -126 31 -150 23 -20 39
-24 88 -24 l59 0 0 41 c0 37 -2 41 -22 36 -12 -3 -30 -2 -40 4 -16 8 -18 23
-18 114 l0 105 45 0 45 0 0 40 0 40 -45 0 -45 0 0 65 c0 71 1 70 -62 53z"/>
<path d="M1066 1293 c-2 -10 -7 -28 -11 -40 -6 -23 -5 -23 84 -23 l91 0 0
-210 0 -210 50 0 50 0 0 210 0 210 65 0 c68 0 85 12 85 59 0 21 -4 21 -204 21
-186 0 -205 -2 -210 -17z"/>
<path d="M1495 1181 c-76 -35 -105 -85 -105 -180 0 -118 70 -191 183 -191 32
0 72 6 90 14 39 16 82 61 96 99 26 69 3 186 -45 229 -55 48 -150 61 -219 29z
m145 -81 c26 -26 34 -60 28 -122 -9 -93 -88 -129 -149 -69 -26 27 -29 36 -29
96 0 57 3 69 25 90 31 32 96 34 125 5z"/>
<path d="M2146 1185 c-55 -19 -60 -28 -42 -63 l16 -30 37 19 c41 21 113 25
144 9 12 -7 19 -21 19 -40 l0 -30 -65 0 c-36 0 -81 -6 -100 -14 -75 -32 -100
-138 -46 -198 27 -30 34 -33 88 -33 42 0 69 6 95 22 l36 21 26 -26 26 -26 35
34 c19 19 31 36 26 39 -23 16 -31 58 -31 159 0 100 -2 110 -22 130 -13 11 -36
25 -51 31 -39 15 -144 13 -191 -4z m174 -235 c0 -45 -3 -51 -30 -65 -86 -44
-155 17 -99 89 18 22 28 26 75 26 l54 0 0 -50z"/>
<path d="M3550 1183 c0 -5 31 -91 69 -192 59 -155 68 -187 60 -210 -17 -42
-40 -61 -76 -61 -32 0 -33 -1 -33 -40 l0 -40 61 0 c90 0 98 12 208 290 51 129
95 241 98 248 4 9 -10 12 -50 12 l-54 0 -45 -127 -44 -126 -45 126 -44 127
-52 0 c-29 0 -53 -3 -53 -7z"/>
<path d="M217 1173 c-4 -3 -7 -60 -7 -125 0 -96 3 -120 15 -124 22 -9 215 106
215 127 0 11 -34 36 -99 73 -100 57 -112 61 -124 49z"/>
<path d="M730 1050 c0 -98 3 -130 13 -130 23 0 212 115 212 130 0 15 -186 130
-211 130 -11 0 -14 -25 -14 -130z"/>
<path d="M222 891 c-9 -6 -12 -39 -10 -127 3 -99 6 -119 19 -122 25 -5 204
103 207 124 2 13 -10 25 -35 39 -21 12 -67 37 -103 58 -40 22 -70 33 -78 28z"/>
<path d="M1902 440 c16 -49 33 -90 38 -90 5 0 22 41 38 90 17 50 27 90 23 90
-4 0 -17 -31 -30 -70 -12 -38 -26 -70 -30 -70 -4 0 -17 32 -30 70 -12 39 -26
70 -31 70 -5 0 5 -40 22 -90z"/>
<path d="M2044 440 c0 -52 1 -74 3 -47 2 26 2 68 0 95 -2 26 -3 4 -3 -48z"/>
<path d="M2112 440 c16 -49 33 -90 38 -90 5 0 22 41 38 90 17 50 27 90 23 90
-4 0 -17 -32 -30 -70 -12 -39 -26 -68 -31 -65 -5 3 -18 34 -30 70 -12 36 -25
65 -30 65 -5 0 5 -40 22 -90z"/>
<path d="M2250 440 l0 -90 55 0 c30 0 55 5 55 10 0 6 -23 10 -51 10 l-50 0 3
33 c3 29 7 33 43 38 l40 6 -42 2 c-41 1 -43 3 -43 31 0 29 1 30 50 30 28 0 50
5 50 10 0 6 -25 10 -55 10 l-55 0 0 -90z"/>
<path d="M2490 440 l0 -90 55 0 c30 0 55 5 55 10 0 6 -20 10 -45 10 -45 0 -45
0 -45 34 0 33 2 35 38 39 l37 4 -37 1 c-35 2 -38 4 -38 32 0 29 2 30 45 30 25
0 45 5 45 10 0 6 -25 10 -55 10 l-55 0 0 -90z"/>
<path d="M2640 440 l0 -90 50 0 c28 0 50 5 50 10 0 6 -18 10 -40 10 l-40 0 0
80 c0 47 -4 80 -10 80 -6 0 -10 -37 -10 -90z"/>
<path d="M2872 438 c1 -69 3 -81 7 -48 6 43 7 45 46 51 l40 6 -42 2 c-41 1
-43 3 -43 31 0 29 2 30 45 30 25 0 45 5 45 10 0 6 -22 10 -50 10 l-50 0 2 -92z"/>
<path d="M3000 456 c0 -84 13 -106 60 -106 48 0 60 22 58 108 l-1 77 -6 -72
c-7 -87 -25 -113 -66 -95 -24 11 -25 16 -25 87 0 43 -4 75 -10 75 -6 0 -10
-31 -10 -74z"/>
<path d="M3150 520 c0 -5 11 -10 25 -10 23 0 24 -2 28 -82 l3 -83 2 83 2 82
30 0 c17 0 30 5 30 10 0 6 -27 10 -60 10 -33 0 -60 -4 -60 -10z"/>
<path d="M3290 462 c0 -80 17 -112 60 -112 49 0 60 22 58 108 -2 71 -2 73 -5
17 -2 -33 -5 -70 -8 -82 -6 -27 -37 -38 -65 -23 -17 9 -20 20 -20 85 0 43 -4
75 -10 75 -6 0 -10 -29 -10 -68z"/>
<path d="M3462 439 c1 -52 3 -75 5 -51 4 39 6 42 34 42 25 0 32 -6 45 -40 9
-22 20 -40 25 -40 12 0 12 4 -7 44 -16 32 -16 36 0 51 38 38 12 75 -59 83
l-45 5 2 -94z m82 65 c19 -7 21 -35 4 -52 -7 -7 -27 -12 -45 -12 -31 0 -33 2
-33 35 0 32 2 35 29 35 16 0 36 -3 45 -6z"/>
<path d="M3631 504 c-46 -58 -16 -154 48 -154 42 0 66 33 66 92 0 40 -5 53
-24 69 -33 27 -66 24 -90 -7z m79 -4 c37 -37 17 -140 -27 -140 -51 0 -74 99
-33 140 11 11 25 20 30 20 6 0 19 -9 30 -20z"/>
</g>
</svg>
