<?xml version="1.0" standalone="no"?>
<!DOCTYPE svg PUBLIC "-//W3C//DTD SVG 20010904//EN"
 "http://www.w3.org/TR/2001/REC-SVG-20010904/DTD/svg10.dtd">
<svg version="1.0" xmlns="http://www.w3.org/2000/svg"
 width="1600.000000pt" height="1600.000000pt" viewBox="0 0 1600.000000 1600.000000"
 preserveAspectRatio="xMidYMid meet">

<g transform="translate(0.000000,1600.000000) scale(0.100000,-0.100000)"
fill="#000000" stroke="none">
<path d="M7844 15820 c-387 -41 -753 -229 -1008 -517 -410 -465 -506 -1124
-246 -1688 174 -378 524 -689 920 -819 192 -62 252 -71 490 -71 189 0 228 3
319 23 428 96 785 350 1014 722 162 263 243 606 217 919 -18 217 -63 381 -160
576 -287 577 -911 922 -1546 855z"/>
<path d="M7725 12410 c-1031 -115 -1891 -774 -2270 -1739 -113 -290 -182 -663
-173 -947 3 -114 6 -136 30 -185 100 -215 362 -293 560 -167 97 61 164 166
175 273 l6 55 1947 0 1947 0 6 -55 c15 -145 128 -276 276 -319 182 -53 378 38
460 213 25 54 26 61 25 246 -1 561 -212 1141 -584 1610 -86 108 -274 300 -390
397 -137 116 -366 265 -532 346 -270 133 -514 209 -818 257 -123 19 -540 29
-665 15z"/>
<path d="M7856 9226 c-100 -42 -179 -122 -221 -223 -19 -47 -20 -81 -25 -1267
l-5 -1218 -1030 -595 c-704 -406 -1044 -607 -1073 -636 -24 -23 -57 -71 -75
-106 -42 -86 -50 -207 -18 -292 47 -124 138 -213 251 -246 75 -22 182 -20 245
4 28 11 510 286 1073 610 l1023 591 437 -252 c240 -139 689 -398 997 -577 308
-178 585 -336 615 -351 195 -99 429 -18 523 180 29 61 32 76 32 167 0 93 -2
105 -32 165 -18 36 -51 84 -75 107 -30 29 -360 225 -1073 637 l-1030 594 -5
1219 -5 1218 -32 67 c-42 89 -101 151 -182 191 -58 28 -76 32 -161 35 -82 2
-103 -1 -154 -22z"/>
<path d="M2575 6684 c-297 -42 -504 -118 -725 -265 -122 -81 -323 -281 -407
-404 -118 -175 -199 -366 -245 -575 -19 -90 -22 -133 -22 -310 1 -226 13 -311
74 -493 153 -454 523 -824 977 -977 186 -62 267 -74 498 -74 231 1 313 13 498
74 525 175 932 647 1034 1200 27 146 24 421 -5 567 -64 318 -200 572 -432 804
-228 229 -486 368 -797 430 -104 20 -371 34 -448 23z"/>
<path d="M13125 6683 c-387 -46 -713 -207 -976 -480 -206 -214 -351 -498 -406
-793 -26 -144 -24 -441 5 -576 67 -312 203 -566 420 -788 220 -224 481 -367
799 -438 84 -19 129 -22 308 -22 179 0 224 3 308 22 629 140 1083 595 1218
1222 20 89 23 135 23 305 0 168 -3 216 -22 301 -45 210 -129 407 -243 576 -86
126 -285 325 -409 407 -275 183 -575 274 -890 270 -58 -1 -118 -4 -135 -6z
m353 -803 c381 -106 624 -483 561 -869 -44 -272 -248 -516 -506 -606 -335
-117 -704 6 -897 299 -99 150 -142 305 -132 471 23 369 294 667 661 726 76 12
231 2 313 -21z"/>
<path d="M2393 3265 c-510 -68 -943 -249 -1353 -565 -114 -88 -350 -322 -444
-440 -213 -268 -388 -603 -481 -920 -58 -197 -87 -353 -106 -568 -23 -272 -1
-372 110 -483 49 -48 81 -71 123 -87 157 -59 316 -25 426 92 58 62 89 123 103
205 l11 61 1942 0 1942 0 12 -62 c17 -91 54 -159 122 -221 80 -75 148 -101
260 -100 110 0 180 26 254 94 112 102 142 194 132 399 -30 589 -214 1092 -575
1565 -90 118 -321 354 -441 449 -378 301 -820 495 -1300 571 -144 23 -595 29
-737 10z"/>
<path d="M12940 3264 c-390 -50 -776 -187 -1108 -395 -323 -201 -627 -501
-845 -834 -270 -414 -427 -924 -431 -1405 -1 -141 1 -160 22 -213 30 -73 113
-164 184 -200 147 -74 315 -53 433 55 104 95 128 164 145 406 27 414 171 784
427 1102 175 216 450 432 690 541 748 340 1613 187 2184 -384 164 -164 272
-315 375 -522 118 -240 174 -455 199 -760 18 -234 40 -295 140 -383 115 -101
255 -125 403 -70 79 29 180 130 213 213 22 55 24 73 23 215 -3 606 -240 1224
-655 1705 -447 519 -1057 846 -1739 930 -153 19 -511 18 -660 -1z"/>
</g>
</svg>
